<svg id="Layer_1" data-name="Layer 1" xmlns="http://www.w3.org/2000/svg" viewBox="0 0 122.88 119.87"><defs><style>.cls-1{fill-rule:evenodd;}</style></defs><title>dropshipping</title><path fill="white" class="cls-1" d="M9.62,102.57a5.54,5.54,0,1,1-5.54,5.54,5.54,5.54,0,0,1,5.54-5.54Zm109-7a1.5,1.5,0,0,1,0-.22,7.32,7.32,0,0,1-1.06-.17,7.53,7.53,0,0,1-1.68-.75,3.79,3.79,0,0,1-.68-.91,3.51,3.51,0,0,1-.67.91,5.4,5.4,0,0,1-6.53,0,3.79,3.79,0,0,1-.68-.91,3.51,3.51,0,0,1-.67.91,5.4,5.4,0,0,1-6.53,0,3.79,3.79,0,0,1-.68-.91,3.51,3.51,0,0,1-.67.91,5.4,5.4,0,0,1-6.53,0,3.79,3.79,0,0,1-.68-.91,3.51,3.51,0,0,1-.67.91,6.39,6.39,0,0,1-2.25,1l-.48,0s0,.09,0,.14v16.52a.11.11,0,0,0,0,.08.11.11,0,0,0,.09,0h9.83v-9.67a1.38,1.38,0,0,1,.4-1,1.42,1.42,0,0,1,1-.4h7.78a1.4,1.4,0,0,1,1.38,1.38v9.67h9.83a.12.12,0,0,0,.08,0,.09.09,0,0,0,0-.08V95.54Zm-64.5,17.52a2.9,2.9,0,0,1,2.49-.42c.71.2,1.41.38,2.11.53s1.41.3,2.14.42A3,3,0,0,1,62,114a3.14,3.14,0,0,1,1.09,1.31,3,3,0,0,1,.22,1.68,3.14,3.14,0,0,1-.46,1.17,3,3,0,0,1-1.25,1.08l0,0a3.08,3.08,0,0,1-1.65.22h-.06c-.8-.14-1.61-.3-2.45-.48s-1.6-.38-2.4-.6h0A3.07,3.07,0,0,1,54,118a2.82,2.82,0,0,1-.72-.74,2.87,2.87,0,0,1-.42-2.49,2.92,2.92,0,0,1,.45-.94,3.1,3.1,0,0,1,.75-.74Zm17.83,1.44a3.06,3.06,0,0,1,1.72-.63c.72,0,1.44-.08,2.15-.15h0c.7-.06,1.42-.15,2.17-.26a2.73,2.73,0,0,1,.57,0,2.8,2.8,0,0,1,.58.08h0a3,3,0,0,1,2,1.54,3.08,3.08,0,0,1,.31,1.52,3,3,0,0,1-.46,1.48,3,3,0,0,1-2,1.33h-.05q-1.17.18-2.43.3c-.85.08-1.7.14-2.55.17a3.08,3.08,0,0,1-1-.11,3,3,0,0,1-1.52-1,3,3,0,0,1-.64-1.72,3.09,3.09,0,0,1,.11-.94v0a3.07,3.07,0,0,1,1-1.49l0,0Zm28.21-2.32h6.49v-9h-6.49v9Zm20.4-17a1,1,0,0,1,.08.39v16.52a2.15,2.15,0,0,1-.64,1.51,2.1,2.1,0,0,1-1.5.63H88.28a2.15,2.15,0,0,1-2.14-2.14V95.54a1.17,1.17,0,0,1,.07-.38A3.25,3.25,0,0,1,85,94.4a3.72,3.72,0,0,1-1.1-2.65V90.28h0a.41.41,0,0,1,0-.21l2.64-8.46a1.71,1.71,0,0,1,1.77-1.19h29.88A1.89,1.89,0,0,1,120,81.6l2.84,8.46a.66.66,0,0,1,.06.2h0v1.49a3.72,3.72,0,0,1-1.1,2.65,2.89,2.89,0,0,1-1.25.75ZM34.77,45.6c-.33.35-.43.47-.8.92l0,0c-.46.55-1.45,1.84-1.9,2.42a3,3,0,0,1-1.33,1l0,0a3.07,3.07,0,0,1-1.68.11h0a3,3,0,0,1-2.15-1.9,2.92,2.92,0,0,1-.11-1.71,3,3,0,0,1,.49-1.07l0,0c.5-.66,1.56-2,2.09-2.66s.66-.78,1.23-1.39v0l.07-.07-1.36-.12a2.45,2.45,0,1,1,.42-4.89l7.71.67a2.44,2.44,0,0,1,2.23,2.64l0,7.49a2.45,2.45,0,1,1-4.89,0V45.6Zm10.58-2.92c0-5.6-.15-9.07,3.88-11.51C51.41,30,57,29.54,59.49,27.93a20.32,20.32,0,0,0,1-2.72l0-.08a21.51,21.51,0,0,1-2.35-3.23l-2-2.91A5.83,5.83,0,0,1,55,16.06a2.28,2.28,0,0,1,.2-1.06,2,2,0,0,1,.69-.8,2.06,2.06,0,0,1,.49-.25,50.53,50.53,0,0,1-.09-5.79,7.74,7.74,0,0,1,.25-1.31,8.46,8.46,0,0,1,5.61-5.44C63.45,1,63-.07,64.24,0c3,.17,7.67,2.11,9.46,4.18,2.51,2.89,1.86,6.45,1.78,10h0a1.45,1.45,0,0,1,1.06,1.11A4.5,4.5,0,0,1,76,18h0a.21.21,0,0,1,0,.06l-2.3,3.48a18.62,18.62,0,0,1-3,4.06l-.06.06c.11.16.24.34.37.54.4.58.85,1.25,1.28,1.77,2.5,1.56,8,2,10.16,3.18,4.49,2.55,3.55,6.19,3.86,11.51ZM60.13,29.06Zm0,0c2.8,3.14,9.14,2.59,11.48,0A21.22,21.22,0,0,1,70,26.88c-.12-.16-.22-.32-.32-.46a6.79,6.79,0,0,1-3.9,1.14A6.56,6.56,0,0,1,61.51,26a13.21,13.21,0,0,1-1.24,2.89.47.47,0,0,1-.14.14ZM57.59,14.88c-.78,0-1.43.27-1.41,1.14a4.81,4.81,0,0,0,1,2.35h0l2,2.91a17.48,17.48,0,0,0,2.71,3.57,5.63,5.63,0,0,0,3.88,1.56,5.75,5.75,0,0,0,4.11-1.63A17.58,17.58,0,0,0,72.67,21L75,17.54a3.57,3.57,0,0,0,.48-2c-.14-.55-1.15-.28-1.5-.35a3.39,3.39,0,0,1-.63,0l.78-3.45c-5.79.91-10.12-3.39-16.24-.86l.45,4.07a4,4,0,0,1-.7,0Zm55.33,52a2.45,2.45,0,1,1,3.83,3.06l-4.83,6a2.44,2.44,0,0,1-3.27.52l-6.42-4.23a2.45,2.45,0,1,1,2.7-4.09l1.36.79a3.41,3.41,0,0,1-.15-.82c-.06-.71,0-.26-.09-.91s-.31-2.06-.44-2.75a3,3,0,0,1,.27-1.86l0,0a3,3,0,0,1,1.31-1.29,2.66,2.66,0,0,1,.85-.28h0a3.09,3.09,0,0,1,1.83.28,3,3,0,0,1,1.33,1.32,2.93,2.93,0,0,1,.28.85v0c.15.84.39,2.33.47,3s.06.38.13,1.22v0h0l.79-.93ZM93.41,40.73c.53.51.49.48,1,1l0,0c.5.53,1,1.07,1.46,1.63a3.06,3.06,0,0,0,1.37.93h0a3,3,0,0,0,1.68,0h0a3,3,0,0,0,1.1-.58,3.09,3.09,0,0,0,1-1.43,3,3,0,0,0-.53-2.76l0,0c-.53-.64-1.08-1.26-1.65-1.87s-.59-.63-1.19-1.21l0,0c-2.85-2.76-7,1.56-4.18,4.3Zm8.08,8.69a3,3,0,0,0,.32,1.85c.34.64.67,1.29,1,1.95s.59,1.3.86,2v0a3.37,3.37,0,0,0,.32.59l0,0a2.81,2.81,0,0,0,.44.48l0,.05a3,3,0,0,0,2.23.7,3,3,0,0,0,2.49-1.82,3,3,0,0,0,0-2.3c-.33-.78-.66-1.54-1-2.28s-.7-1.46-1.09-2.18l0,0a3.38,3.38,0,0,0-.51-.71,3.09,3.09,0,0,0-1.69-.86,3,3,0,0,0-1.86.32,3.15,3.15,0,0,0-.71.52,3,3,0,0,0-.85,1.69Zm-78,19.34a3.09,3.09,0,0,1,.38,1.85c-.09.69-.16,1.34-.2,2a8.89,8.89,0,0,0-.06,1.08c0,3.93-6,3.88-6,0v0c0-.84,0-.65.07-1.39s.12-1.46.22-2.31v0a2.66,2.66,0,0,1,.23-.86,2.94,2.94,0,0,1,1.26-1.39,3,3,0,0,1,1.81-.38h0a2.83,2.83,0,0,1,.87.24,3,3,0,0,1,1.37,1.22l0,0ZM27.27,54.6a3,3,0,0,1-.21,1.87c-.31.66-.61,1.33-.88,2s-.74,2-1,2.65v.05a2.49,2.49,0,0,1-.29.59l0,.05a3.89,3.89,0,0,1-.41.5l0,0a3,3,0,0,1-2.19.83,3.15,3.15,0,0,1-1.52-.5,2.94,2.94,0,0,1-1.2-3.48c.28-.8.8-2.23,1.11-3s.62-1.5,1-2.24v0a3.42,3.42,0,0,1,.48-.73,3,3,0,0,1,3.51-.74,3,3,0,0,1,1.68,2.12ZM29,84.65H43.08A1.88,1.88,0,0,1,45,86.52V97a1.88,1.88,0,0,1-1.87,1.87H29a1.83,1.83,0,0,1-1.32-.55A1.87,1.87,0,0,1,27.14,97V86.52A1.88,1.88,0,0,1,29,84.65Zm4.52,1.81h5.06L38.68,94,36,92.34,33.41,94l.12-7.5Zm4.35,15.47a6.18,6.18,0,1,1-6.18,6.18,6.18,6.18,0,0,1,6.18-6.18Zm0,4a2.13,2.13,0,1,1-2.13,2.13A2.13,2.13,0,0,1,37.88,106Zm8.93,3.53a.77.77,0,0,1-.77-.78.76.76,0,0,1,.77-.77h1.95a1.38,1.38,0,0,0,1-.44,1.55,1.55,0,0,0,.44-1.07V83.77a1.42,1.42,0,0,0-.41-1l0,0a1.43,1.43,0,0,0-1-.38H23.32a1.42,1.42,0,0,0-1.42,1.42V108h6.83a.77.77,0,0,1,.77.77.78.78,0,0,1-.77.78h-7.6a.78.78,0,0,1-.78-.78v-.93H16.53c-.38-8.51-12.6-9.69-13.85,0H0l.83-8.88,8.81-3.38L13.15,88l7.2,0V83.77a3,3,0,0,1,3-3H48.76a3,3,0,0,1,2.05.82l0,0a3,3,0,0,1,.88,2.1v22.68a3.09,3.09,0,0,1-.88,2.14,2.92,2.92,0,0,1-2.1.92Zm-32-19.21,4.67,0v5.31h-7l2.34-5.26ZM9.62,106a2.13,2.13,0,1,1-2.13,2.13A2.13,2.13,0,0,1,9.62,106Z"/></svg>