<svg version="1.1" id="Layer_1" xmlns="http://www.w3.org/2000/svg" xmlns:xlink="http://www.w3.org/1999/xlink" x="0px" y="0px"
	 width="100%" viewBox="0 0 1397 477" enable-background="new 0 0 1397 477" xml:space="preserve">
<path fill="#12141F" opacity="1.000000" stroke="none" 
	d="
M999.000000,478.000000 
	C667.500000,478.000000 336.500031,477.992584 5.500087,478.093079 
	C1.751106,478.094238 0.903414,477.249573 0.906049,473.500000 
	C1.015688,317.500061 1.015679,161.500061 0.906077,5.500154 
	C0.903443,1.750943 1.750651,0.906301 5.499931,0.907097 
	C468.166565,1.005311 930.833252,1.005307 1393.499878,0.907139 
	C1397.248535,0.906344 1398.096680,1.750117 1398.093994,5.499895 
	C1397.984375,161.499802 1397.984375,317.499786 1398.093872,473.499725 
	C1398.096558,477.248566 1397.250366,478.097473 1393.500122,478.094238 
	C1262.166870,477.981354 1130.833374,478.000000 999.000000,478.000000 
z"/>
<path fill="#69978B" opacity="1.000000" stroke="none" 
	d="
M1027.376953,297.636566 
	C1022.694458,288.256592 1018.082092,279.255859 1013.753784,270.120575 
	C1007.019165,255.906708 1012.335571,238.578751 1026.376709,231.398026 
	C1058.814697,214.809021 1091.474121,198.651581 1124.102661,182.437668 
	C1132.235962,178.396072 1140.608887,179.520081 1148.902466,182.278473 
	C1199.291382,199.037476 1249.683716,215.786148 1300.074463,232.539703 
	C1309.234253,235.585129 1318.434570,238.516159 1327.541870,241.711548 
	C1346.000366,248.187866 1354.019531,264.085419 1347.890869,282.686798 
	C1332.628540,329.010193 1317.009155,375.216278 1301.857300,421.575500 
	C1296.102295,439.183899 1278.683472,448.246582 1261.016602,442.301788 
	C1200.748535,422.021820 1140.395752,401.993134 1080.099487,381.796722 
	C1071.530273,378.926392 1065.174805,373.416199 1061.100220,365.161896 
	C1050.018921,342.713379 1038.761719,320.351654 1027.376953,297.636566 
z"/>
<path fill="#8BD8C4" opacity="1.000000" stroke="none" 
	d="
M913.155640,283.106415 
	C916.462891,276.720551 919.625244,270.676208 922.765747,264.620544 
	C923.521240,263.163757 924.266785,261.874603 923.217529,260.013519 
	C909.167542,235.093521 895.209717,210.121552 880.958801,184.680191 
	C879.595520,186.578857 880.136108,188.224228 880.134094,189.690079 
	C880.096191,217.185928 880.017944,244.682449 880.202148,272.177124 
	C880.229553,276.265503 879.288696,277.645233 875.030273,277.462006 
	C866.879883,277.111298 858.693604,277.118286 850.542480,277.460541 
	C846.393677,277.634766 845.678284,276.095856 845.686218,272.355743 
	C845.796692,220.363708 845.793701,168.371307 845.691406,116.379234 
	C845.684448,112.837410 846.337219,111.353676 850.292297,111.497711 
	C858.779724,111.806816 867.291260,111.761345 875.782715,111.512436 
	C879.361267,111.407516 880.208496,112.609550 880.180664,116.035110 
	C880.025208,135.197662 880.202454,154.363037 880.022461,173.525162 
	C879.988037,177.186523 880.836365,178.430313 884.683716,178.314972 
	C894.173767,178.030487 903.682556,178.387344 913.174316,178.133133 
	C916.518127,178.043579 918.159363,179.215622 919.687378,182.089874 
	C927.789978,197.331223 936.122986,212.450058 944.688293,228.184708 
	C951.649841,213.173309 958.590332,198.803146 964.938416,184.175842 
	C966.993408,179.440826 969.503723,177.846893 974.586182,178.093399 
	C983.896240,178.544937 993.243835,178.209549 1002.575806,178.226624 
	C1007.818481,178.236221 1007.966492,178.454498 1005.604492,182.978485 
	C989.122803,214.546356 972.616516,246.101349 956.137756,277.670715 
	C948.052185,293.160828 939.972412,308.654236 931.986084,324.195526 
	C930.822449,326.460083 929.674561,327.826874 926.783325,327.778931 
	C915.954529,327.599396 905.119446,327.600037 894.290161,327.763550 
	C890.479797,327.821045 890.545532,326.496429 892.002258,323.725922 
	C899.049194,310.323151 906.010864,296.875519 913.155640,283.106415 
z"/>
<path fill="#8BD8C4" opacity="1.000000" stroke="none" 
	d="
M148.884949,273.993042 
	C140.448257,276.413818 132.261658,277.488953 123.863953,277.398224 
	C110.040543,277.248871 96.211861,277.213593 82.390923,277.451324 
	C78.548698,277.517395 77.736534,276.292694 77.744972,272.659424 
	C77.860649,222.856308 77.855789,173.052750 77.755531,123.249557 
	C77.748131,119.574806 78.372185,117.943245 82.592743,118.096558 
	C100.056053,118.730919 117.561752,117.252899 135.009323,119.031052 
	C169.225800,122.518181 198.232025,150.515106 203.114944,184.738892 
	C209.014130,226.085495 188.538895,259.985657 148.884949,273.993042 
z"/>
<path fill="#8BD7C3" opacity="1.000000" stroke="none" 
	d="
M537.977783,214.155609 
	C545.988892,246.625046 525.147156,275.864807 491.476471,279.744965 
	C477.745697,281.327301 464.265961,280.411743 451.368103,274.812317 
	C415.854614,259.394714 409.800415,212.049911 440.325684,188.284286 
	C464.713593,169.296936 503.150208,171.258347 525.200134,192.625656 
	C531.301453,198.538162 535.600769,205.543884 537.977783,214.155609 
z"/>
<path fill="#8BD7C4" opacity="1.000000" stroke="none" 
	d="
M768.511841,235.000336 
	C768.511230,247.999130 768.387146,260.499908 768.588806,272.995422 
	C768.646118,276.546600 767.527588,277.534119 764.065613,277.438049 
	C755.739502,277.207031 747.394165,277.141846 739.073792,277.459625 
	C735.002441,277.615112 733.681824,276.607483 733.756531,272.314545 
	C734.028992,256.654144 733.892517,240.986023 733.845886,225.321014 
	C733.832458,220.813171 733.564819,216.297028 731.414551,212.183838 
	C727.732544,205.140717 721.559143,201.986572 713.658203,203.018265 
	C706.102478,204.004852 698.653931,210.915146 697.047974,218.368576 
	C696.159302,222.493057 696.466431,226.665955 696.457092,230.822678 
	C696.425598,244.821243 696.356689,258.820892 696.509521,272.817871 
	C696.545349,276.092712 695.946472,277.566437 692.213196,277.449432 
	C683.555847,277.178009 674.882935,277.277466 666.219116,277.410095 
	C663.252319,277.455505 661.848999,277.008392 661.868286,273.406799 
	C662.030090,243.077255 662.005737,212.746338 661.892822,182.416351 
	C661.880859,179.208878 662.652405,178.053055 666.026184,178.148422 
	C674.185547,178.379059 682.372314,178.536270 690.515442,178.105316 
	C695.377625,177.847977 697.277405,179.291656 696.481506,184.127792 
	C696.330566,185.044739 696.230469,186.122467 697.078369,186.949554 
	C698.705383,187.263397 699.321716,185.800217 700.282410,185.009644 
	C716.320862,171.811066 742.880554,172.608215 758.125793,186.882263 
	C765.201965,193.507599 768.345520,201.924698 768.467590,211.503174 
	C768.565308,219.167847 768.503113,226.834534 768.511841,235.000336 
z"/>
<path fill="#8BD7C3" opacity="1.000000" stroke="none" 
	d="
M579.041382,235.562042 
	C581.747864,250.076660 594.697388,256.561920 607.229553,249.813416 
	C614.928711,245.667465 615.772400,237.831375 615.944885,230.322708 
	C616.304321,214.673782 616.262146,199.009979 616.042480,183.357101 
	C615.983215,179.134857 617.245361,177.980988 621.362427,178.126251 
	C630.012878,178.431488 638.682434,178.289215 647.342224,178.179138 
	C649.996765,178.145401 651.244995,178.776901 651.212891,181.768753 
	C651.012512,200.417953 651.622437,219.100815 650.713806,237.711487 
	C649.422119,264.169525 638.965332,275.460266 612.820862,279.378357 
	C599.276672,281.408112 585.601135,281.170959 572.226929,277.384888 
	C555.115234,272.540802 545.619995,261.585480 544.096741,243.938812 
	C542.303833,223.168625 543.661194,202.324295 543.251892,181.517700 
	C543.188110,178.274475 544.983643,178.176483 547.381897,178.193787 
	C556.209167,178.257431 565.041260,178.374222 573.863037,178.144516 
	C577.422241,178.051804 578.378235,179.286682 578.353149,182.703049 
	C578.240479,198.024994 578.340454,213.348770 578.425720,228.671555 
	C578.437683,230.823822 578.793030,232.974182 579.041382,235.562042 
z"/>
<path fill="#8AD6C3" opacity="1.000000" stroke="none" 
	d="
M785.141724,218.011078 
	C785.141663,217.346436 785.151489,217.179230 785.140198,217.013474 
	C784.881714,213.222244 786.659729,208.587265 784.401733,205.853882 
	C782.177979,203.161942 777.502258,204.989807 773.921875,204.918259 
	C771.349548,204.866867 770.895325,203.802124 770.924561,201.601120 
	C771.013184,194.941376 771.101440,188.275208 770.893372,181.620804 
	C770.796021,178.506516 772.231873,178.207489 774.787842,178.167450 
	C785.142822,178.005280 785.141541,177.930634 785.141663,167.297165 
	C785.141724,159.970154 785.249878,152.640747 785.087097,145.317352 
	C785.025391,142.541626 785.838989,141.520279 788.712219,141.565582 
	C797.868713,141.709991 807.031799,141.751633 816.186096,141.549881 
	C819.472229,141.477463 820.005371,142.810104 819.959473,145.682831 
	C819.807861,155.172211 820.046265,164.668839 819.826538,174.155548 
	C819.748962,177.504608 820.847595,178.469315 824.055298,178.278839 
	C828.203735,178.032532 832.385315,178.372025 836.538391,178.168167 
	C839.503784,178.022614 840.739502,178.919922 840.649475,182.060532 
	C840.468201,188.383163 840.456482,194.719208 840.658142,201.040665 
	C840.758545,204.187103 839.581055,205.055481 836.598389,204.891876 
	C832.447815,204.664230 828.265625,205.011230 824.115540,204.778702 
	C820.939514,204.600723 819.750244,205.513138 819.828979,208.901550 
	C820.053345,218.554840 819.836548,228.217453 819.958313,237.874313 
	C820.077393,247.314362 824.762512,251.993301 833.426941,247.223969 
	C835.224915,246.234253 836.078125,246.724747 836.641235,248.567673 
	C839.019287,256.350952 841.448853,264.118500 843.862000,271.891052 
	C844.409546,273.654572 843.714172,274.608002 842.046570,275.346558 
	C828.691589,281.261353 815.018127,283.066284 801.545410,276.545959 
	C789.712219,270.819122 786.238770,259.481262 785.399109,247.473175 
	C784.726746,237.859528 785.185181,228.166809 785.141724,218.011078 
z"/>
<path fill="#8BD7C3" opacity="1.000000" stroke="none" 
	d="
M337.099426,240.161972 
	C335.652374,242.936401 336.514984,245.633820 336.468018,248.243439 
	C336.233734,261.268616 330.440002,271.046509 318.299042,275.490173 
	C297.192139,283.215485 276.198639,282.961731 256.351501,271.053589 
	C250.550522,267.573059 250.727798,267.296082 254.123688,261.618652 
	C257.028229,256.762726 260.085419,251.986603 262.740234,246.997009 
	C264.416931,243.845764 265.654144,242.897400 268.829254,245.611343 
	C273.014984,249.189133 278.137054,251.372421 283.325104,253.254547 
	C287.040863,254.602539 290.866150,254.682312 294.652374,253.873428 
	C297.190857,253.331131 299.293610,251.930161 299.760590,249.040695 
	C300.247986,246.024826 299.035614,243.745377 296.346100,242.476440 
	C292.892456,240.846970 289.367126,239.345428 285.793030,238.000443 
	C279.514038,235.637604 273.855957,232.276169 268.368652,228.420471 
	C253.006042,217.625854 255.611008,192.028595 271.205811,182.919876 
	C284.435547,175.192551 298.585663,174.298935 313.207916,176.362534 
	C319.620728,177.267578 325.885681,178.916245 331.863464,181.597992 
	C334.434357,182.751358 334.955414,183.891815 333.575714,186.433777 
	C330.640442,191.841888 327.787659,197.315308 325.305084,202.940262 
	C323.991302,205.917084 322.622925,206.000168 320.030029,204.685226 
	C313.395508,201.320618 306.335449,199.597351 298.840668,200.066772 
	C295.622498,200.268326 292.152710,200.513687 291.451508,204.503906 
	C290.759064,208.444168 293.762909,209.988907 296.807678,211.261902 
	C305.366394,214.840286 314.708527,216.364014 322.632629,221.672119 
	C328.515228,225.612701 332.998993,230.456833 335.699585,237.386795 
	C336.177704,237.694672 336.368683,237.756348 336.781799,238.021545 
	C337.100616,238.401260 337.197296,238.577408 337.349274,239.049927 
	C337.371155,239.544449 337.337708,239.742630 337.099426,240.161972 
z"/>
<path fill="#8BD7C3" opacity="1.000000" stroke="none" 
	d="
M337.235840,240.599701 
	C336.894592,240.383148 336.972717,240.508194 337.017792,240.566528 
	C336.704926,239.838684 336.509613,238.999023 336.097046,237.779419 
	C335.935944,237.381012 335.981110,237.502579 335.983917,237.567795 
	C337.571259,232.615311 335.710968,227.557678 336.390198,222.404037 
	C339.416443,199.441589 359.212036,179.150940 382.182587,176.031738 
	C394.867340,174.309265 407.058838,176.016785 418.739990,181.081253 
	C424.880768,183.743652 424.905548,184.341156 421.918610,190.269882 
	C419.601227,194.869553 417.143433,199.412964 415.115601,204.139114 
	C413.673096,207.500977 412.540924,208.572266 408.611603,206.648331 
	C395.522308,200.239334 380.930023,205.386139 375.193970,217.881958 
	C371.091675,226.818832 372.946716,237.588455 379.815887,244.715012 
	C386.963715,252.130676 397.754425,254.143753 408.397339,249.234726 
	C412.412628,247.382675 413.687866,248.288086 415.209808,251.919647 
	C417.454468,257.275574 420.111084,262.480194 422.911194,267.573944 
	C424.588287,270.624725 424.047089,272.375427 420.970032,273.805481 
	C381.978912,291.926605 346.503204,271.483246 337.235840,240.599701 
z"/>
<path fill="#8CD8C4" opacity="1.000000" stroke="none" 
	d="
M219.068634,178.227020 
	C226.392822,178.227112 233.228378,178.337357 240.057556,178.176941 
	C243.094788,178.105606 244.518021,178.704376 244.502640,182.249115 
	C244.371002,212.580200 244.380280,242.912262 244.493271,273.243500 
	C244.505661,276.570679 243.408539,277.483643 240.214066,277.418060 
	C231.384933,277.236725 222.546371,277.216675 213.718552,277.427002 
	C210.495285,277.503815 209.893860,276.309601 209.903015,273.379303 
	C209.997742,243.047943 210.011917,212.715958 209.887787,182.384827 
	C209.874298,179.088211 210.795853,177.797714 214.081375,178.197571 
	C215.559357,178.377457 217.077484,178.227371 219.068634,178.227020 
z"/>
<path fill="#8AD6C3" opacity="1.000000" stroke="none" 
	d="
M247.354248,141.274033 
	C244.695877,151.565887 236.480774,158.266144 227.313446,157.982330 
	C218.338959,157.704468 209.793732,150.586426 208.038025,141.926224 
	C206.183670,132.779388 211.043655,123.467819 219.937561,119.510223 
	C234.260574,113.136795 249.933151,126.017273 247.354248,141.274033 
z"/>
<path fill="#8CD8C5" opacity="1.000000" stroke="none" 
	d="
M1050.675049,275.476807 
	C1048.258423,260.483124 1052.841064,251.156906 1064.944824,246.376984 
	C1075.849121,242.070770 1087.763184,247.102722 1093.160522,258.293945 
	C1098.224731,268.794403 1094.285278,281.715881 1084.292969,287.378937 
	C1073.469604,293.513031 1064.422852,291.731750 1053.690674,281.210754 
	C1052.776367,280.724579 1052.516602,280.149628 1052.201416,279.214966 
	C1052.012573,278.946686 1051.999512,279.009491 1052.031494,279.010071 
	C1051.578369,278.598114 1051.512695,277.997742 1051.195435,277.191772 
	C1051.031738,276.946808 1051.002686,276.998749 1051.032471,276.998413 
	C1050.701538,276.679230 1050.520508,276.283112 1050.675049,275.476807 
z"/>
<path fill="#50746E" opacity="1.000000" stroke="none" 
	d="
M1050.667969,275.334229 
	C1050.901367,275.560944 1050.999146,275.966339 1051.079590,276.684906 
	C1050.471924,276.650665 1050.186768,276.194305 1050.667969,275.334229 
z"/>
<path fill="#50746E" opacity="1.000000" stroke="none" 
	d="
M1051.059570,277.248230 
	C1051.381958,277.424225 1051.732300,277.901642 1052.072998,278.694885 
	C1051.738159,278.523682 1051.412842,278.036652 1051.059570,277.248230 
z"/>
<path fill="#50746E" opacity="1.000000" stroke="none" 
	d="
M1052.104248,279.256470 
	C1052.401001,279.439392 1052.789429,279.932129 1053.311035,280.722168 
	C1053.028076,280.535065 1052.611938,280.050659 1052.104248,279.256470 
z"/>
<path fill="#141722" opacity="1.000000" stroke="none" 
	d="
M114.461128,169.001663 
	C114.461723,164.003601 114.633186,159.496262 114.404495,155.009323 
	C114.244370,151.867798 115.430046,151.173172 118.427269,151.114960 
	C145.223557,150.594528 165.709961,171.963501 164.334534,199.184677 
	C163.180222,222.029938 150.475708,238.659943 130.687286,243.317184 
	C126.758240,244.241867 122.765640,244.173965 118.792503,244.509964 
	C115.159386,244.817200 114.371574,243.375244 114.390800,239.979218 
	C114.523727,216.487122 114.460983,192.993942 114.461128,169.001663 
z"/>
<path fill="#131621" opacity="1.000000" stroke="none" 
	d="
M460.082092,238.636108 
	C454.344910,222.858627 460.703003,209.116760 475.266327,205.774216 
	C484.066040,203.754501 491.752594,206.247116 497.621582,213.230087 
	C503.659271,220.413788 504.350220,228.743729 501.031708,237.117996 
	C497.767792,245.354660 491.277771,249.869598 482.247284,250.443008 
	C472.584106,251.056580 465.046509,247.662064 460.082092,238.636108 
z"/>
<path fill="#12141F" opacity="1.000000" stroke="none" 
	d="
M335.885406,237.846771 
	C337.172943,237.706558 337.042480,238.751205 337.102539,240.149841 
	C335.948608,240.228455 335.987762,239.219498 335.885406,237.846771 
z"/>
</svg>