<svg width="638" height="149" viewBox="0 0 638 149" fill="none" xmlns="http://www.w3.org/2000/svg">
<rect x="13.0657" y="76.7391" width="135.774" height="30.0033" rx="15.0016" transform="rotate(-24.5 13.0657 76.7391)" fill="url(#paint0_linear_62_624)"/>
<rect x="24.1968" y="122.267" width="124.839" height="30.0033" rx="15.0016" transform="rotate(-27 24.1968 122.267)" fill="url(#paint1_linear_62_624)"/>
<circle cx="129.456" cy="129.456" r="15.0016" fill="#00BB90"/>
<circle cx="43.3044" cy="129.456" r="15.0016" fill="#00BB90"/>
<path fill-rule="evenodd" clip-rule="evenodd" d="M29.6221 11.6303C27.7584 3.55751 19.7032 -1.47594 11.6303 0.387817C3.5575 2.25158 -1.47594 10.3068 0.387817 18.3796L5.50631 40.5502C5.71388 41.4493 5.99826 42.3107 6.3509 43.1291C6.93301 44.48 7.58378 45.8094 8.29305 47.0981C10.845 51.7349 15.7779 54.8768 21.4446 54.8768H129.456C137.742 54.8768 144.458 48.1604 144.458 39.8752C144.458 31.59 137.742 24.8735 129.456 24.8735H46.2711C38.3151 24.8735 31.4118 19.3825 29.6221 11.6303Z" fill="#00BB90"/>
<rect x="17.5735" y="69.8647" width="126.823" height="30.0033" rx="15.0016" fill="#00BB90"/>
<path d="M187.16 111C185.987 111 185 110.6 184.2 109.8C183.4 109 183 108.013 183 106.84V52.68C183 51.4533 183.4 50.4667 184.2 49.72C185 48.92 185.987 48.52 187.16 48.52H201.64C206.227 48.52 210.387 49.2933 214.12 50.84C217.907 52.3333 221.187 54.4933 223.96 57.32C226.733 60.0933 228.867 63.3733 230.36 67.16C231.853 70.9467 232.6 75.1333 232.6 79.72C232.6 84.3067 231.853 88.52 230.36 92.36C228.867 96.1467 226.733 99.4533 223.96 102.28C221.187 105.053 217.907 107.213 214.12 108.76C210.387 110.253 206.227 111 201.64 111H187.16ZM191.32 103.64H201.64C206.12 103.64 210.067 102.627 213.48 100.6C216.947 98.52 219.667 95.6933 221.64 92.12C223.613 88.4933 224.6 84.36 224.6 79.72C224.6 75.0267 223.613 70.8933 221.64 67.32C219.667 63.7467 216.947 60.9467 213.48 58.92C210.067 56.8933 206.12 55.88 201.64 55.88H191.32V103.64ZM249.736 111C248.563 111 247.576 110.627 246.776 109.88C246.03 109.08 245.656 108.093 245.656 106.92V71.32C245.656 70.0933 246.03 69.1067 246.776 68.36C247.576 67.6133 248.563 67.24 249.736 67.24C250.963 67.24 251.95 67.6133 252.696 68.36C253.443 69.1067 253.816 70.0933 253.816 71.32V106.92C253.816 108.093 253.443 109.08 252.696 109.88C251.95 110.627 250.963 111 249.736 111ZM249.736 60.12C248.296 60.12 247.043 59.6133 245.976 58.6C244.963 57.5333 244.456 56.28 244.456 54.84C244.456 53.4 244.963 52.1733 245.976 51.16C247.043 50.0933 248.296 49.56 249.736 49.56C251.176 49.56 252.403 50.0933 253.416 51.16C254.483 52.1733 255.016 53.4 255.016 54.84C255.016 56.28 254.483 57.5333 253.416 58.6C252.403 59.6133 251.176 60.12 249.736 60.12ZM284.917 111.32C281.184 111.32 277.717 110.76 274.517 109.64C271.37 108.467 268.917 107 267.157 105.24C266.357 104.387 266.01 103.427 266.117 102.36C266.277 101.24 266.81 100.333 267.717 99.64C268.784 98.7867 269.824 98.44 270.837 98.6C271.904 98.7067 272.81 99.16 273.557 99.96C274.464 100.973 275.904 101.933 277.877 102.84C279.904 103.693 282.144 104.12 284.597 104.12C287.69 104.12 290.037 103.613 291.637 102.6C293.29 101.587 294.144 100.28 294.197 98.68C294.25 97.08 293.477 95.6933 291.877 94.52C290.33 93.3467 287.477 92.3867 283.317 91.64C277.93 90.5733 274.01 88.9733 271.557 86.84C269.157 84.7067 267.957 82.0933 267.957 79C267.957 76.28 268.757 74.04 270.357 72.28C271.957 70.4667 274.01 69.1333 276.517 68.28C279.024 67.3733 281.637 66.92 284.357 66.92C287.877 66.92 290.997 67.48 293.717 68.6C296.437 69.72 298.597 71.2667 300.197 73.24C300.944 74.0933 301.29 75 301.237 75.96C301.184 76.8667 300.73 77.64 299.877 78.28C299.024 78.8667 298.01 79.0533 296.837 78.84C295.664 78.6267 294.677 78.1467 293.877 77.4C292.544 76.12 291.104 75.24 289.557 74.76C288.01 74.28 286.224 74.04 284.197 74.04C281.85 74.04 279.85 74.44 278.197 75.24C276.597 76.04 275.797 77.2133 275.797 78.76C275.797 79.72 276.037 80.6 276.517 81.4C277.05 82.1467 278.064 82.84 279.557 83.48C281.05 84.0667 283.237 84.6533 286.117 85.24C290.117 86.04 293.264 87.0533 295.557 88.28C297.904 89.5067 299.584 90.9467 300.597 92.6C301.61 94.2 302.117 96.0667 302.117 98.2C302.117 100.653 301.45 102.867 300.117 104.84C298.837 106.813 296.917 108.387 294.357 109.56C291.85 110.733 288.704 111.32 284.917 111.32ZM332.274 111.32C328.008 111.32 324.194 110.36 320.834 108.44C317.528 106.467 314.914 103.827 312.994 100.52C311.128 97.16 310.194 93.3733 310.194 89.16C310.194 84.84 311.128 81 312.994 77.64C314.861 74.28 317.421 71.6667 320.674 69.8C323.928 67.88 327.661 66.92 331.874 66.92C335.021 66.92 337.901 67.5333 340.514 68.76C343.128 69.9333 345.474 71.72 347.554 74.12C348.301 74.9733 348.568 75.8533 348.354 76.76C348.141 77.6667 347.554 78.4667 346.594 79.16C345.848 79.6933 345.021 79.88 344.114 79.72C343.208 79.5067 342.381 79.0267 341.634 78.28C339.021 75.5067 335.768 74.12 331.874 74.12C329.154 74.12 326.754 74.76 324.674 76.04C322.594 77.2667 320.968 79 319.794 81.24C318.621 83.48 318.034 86.12 318.034 89.16C318.034 92.04 318.621 94.6 319.794 96.84C321.021 99.08 322.701 100.867 324.834 102.2C326.968 103.48 329.448 104.12 332.274 104.12C334.141 104.12 335.768 103.907 337.154 103.48C338.594 103 339.901 102.28 341.074 101.32C341.928 100.627 342.808 100.253 343.714 100.2C344.621 100.093 345.421 100.333 346.114 100.92C347.021 101.667 347.528 102.52 347.634 103.48C347.741 104.387 347.421 105.213 346.674 105.96C342.834 109.533 338.034 111.32 332.274 111.32ZM380.321 111.32C376.001 111.32 372.188 110.387 368.881 108.52C365.575 106.6 362.961 103.987 361.041 100.68C359.175 97.32 358.241 93.48 358.241 89.16C358.241 84.7867 359.175 80.9467 361.041 77.64C362.961 74.28 365.575 71.6667 368.881 69.8C372.188 67.88 376.001 66.92 380.321 66.92C384.588 66.92 388.375 67.88 391.681 69.8C394.988 71.6667 397.575 74.28 399.441 77.64C401.361 80.9467 402.321 84.7867 402.321 89.16C402.321 93.48 401.388 97.32 399.521 100.68C397.655 103.987 395.068 106.6 391.761 108.52C388.455 110.387 384.641 111.32 380.321 111.32ZM380.321 104.12C383.095 104.12 385.548 103.48 387.681 102.2C389.815 100.92 391.468 99.16 392.641 96.92C393.868 94.68 394.481 92.0933 394.481 89.16C394.481 86.2267 393.868 83.64 392.641 81.4C391.468 79.1067 389.815 77.32 387.681 76.04C385.548 74.76 383.095 74.12 380.321 74.12C377.548 74.12 375.095 74.76 372.961 76.04C370.828 77.32 369.148 79.1067 367.921 81.4C366.695 83.64 366.081 86.2267 366.081 89.16C366.081 92.0933 366.695 94.68 367.921 96.92C369.148 99.16 370.828 100.92 372.961 102.2C375.095 103.48 377.548 104.12 380.321 104.12ZM432.866 111.4C429.186 111.4 425.879 110.627 422.946 109.08C420.066 107.48 417.772 105.16 416.066 102.12C414.412 99.08 413.586 95.3467 413.586 90.92V71.24C413.586 70.0667 413.959 69.1067 414.706 68.36C415.506 67.56 416.492 67.16 417.666 67.16C418.839 67.16 419.799 67.56 420.546 68.36C421.346 69.1067 421.746 70.0667 421.746 71.24V90.92C421.746 93.9067 422.306 96.3867 423.426 98.36C424.546 100.28 426.066 101.72 427.986 102.68C429.906 103.587 432.066 104.04 434.466 104.04C436.759 104.04 438.786 103.587 440.546 102.68C442.359 101.773 443.799 100.547 444.866 99C445.932 97.4533 446.466 95.72 446.466 93.8H451.506C451.506 97.1067 450.679 100.093 449.026 102.76C447.426 105.427 445.212 107.533 442.386 109.08C439.612 110.627 436.439 111.4 432.866 111.4ZM450.546 111C449.372 111 448.386 110.627 447.586 109.88C446.839 109.08 446.466 108.093 446.466 106.92V71.24C446.466 70.0133 446.839 69.0267 447.586 68.28C448.386 67.5333 449.372 67.16 450.546 67.16C451.772 67.16 452.759 67.5333 453.506 68.28C454.252 69.0267 454.626 70.0133 454.626 71.24V106.92C454.626 108.093 454.252 109.08 453.506 109.88C452.759 110.627 451.772 111 450.546 111ZM505.957 111.08C504.784 111.08 503.797 110.707 502.997 109.96C502.25 109.16 501.877 108.173 501.877 107V87.32C501.877 84.28 501.317 81.8 500.197 79.88C499.077 77.96 497.557 76.5467 495.637 75.64C493.77 74.68 491.61 74.2 489.157 74.2C486.917 74.2 484.89 74.6533 483.077 75.56C481.264 76.4667 479.824 77.6933 478.757 79.24C477.69 80.7333 477.157 82.4667 477.157 84.44H472.117C472.117 81.08 472.917 78.0933 474.517 75.48C476.17 72.8133 478.41 70.7067 481.237 69.16C484.064 67.6133 487.237 66.84 490.757 66.84C494.437 66.84 497.717 67.64 500.597 69.24C503.53 70.7867 505.824 73.08 507.477 76.12C509.184 79.16 510.037 82.8933 510.037 87.32V107C510.037 108.173 509.637 109.16 508.837 109.96C508.09 110.707 507.13 111.08 505.957 111.08ZM473.077 111.08C471.904 111.08 470.917 110.707 470.117 109.96C469.37 109.16 468.997 108.173 468.997 107V71.32C468.997 70.0933 469.37 69.1067 470.117 68.36C470.917 67.6133 471.904 67.24 473.077 67.24C474.304 67.24 475.29 67.6133 476.037 68.36C476.784 69.1067 477.157 70.0933 477.157 71.32V107C477.157 108.173 476.784 109.16 476.037 109.96C475.29 110.707 474.304 111.08 473.077 111.08ZM539.448 111C536.781 111 534.381 110.333 532.248 109C530.115 107.613 528.435 105.747 527.208 103.4C525.981 101.053 525.368 98.4133 525.368 95.48V57.32C525.368 56.1467 525.741 55.1867 526.488 54.44C527.235 53.6933 528.195 53.32 529.368 53.32C530.541 53.32 531.501 53.6933 532.248 54.44C532.995 55.1867 533.368 56.1467 533.368 57.32V95.48C533.368 97.6133 533.955 99.4 535.128 100.84C536.301 102.28 537.741 103 539.448 103H542.168C543.128 103 543.928 103.373 544.568 104.12C545.261 104.867 545.608 105.827 545.608 107C545.608 108.173 545.155 109.133 544.248 109.88C543.395 110.627 542.275 111 540.888 111H539.448ZM521.688 75.72C520.568 75.72 519.661 75.4 518.968 74.76C518.275 74.12 517.928 73.32 517.928 72.36C517.928 71.2933 518.275 70.44 518.968 69.8C519.661 69.16 520.568 68.84 521.688 68.84H540.168C541.288 68.84 542.195 69.16 542.888 69.8C543.581 70.44 543.928 71.2933 543.928 72.36C543.928 73.32 543.581 74.12 542.888 74.76C542.195 75.4 541.288 75.72 540.168 75.72H521.688ZM566.038 111C563.691 111 561.611 110.36 559.798 109.08C557.984 107.8 556.571 106.067 555.558 103.88C554.544 101.64 554.038 99.08 554.038 96.2V52.52C554.038 51.3467 554.411 50.3867 555.158 49.64C555.904 48.8933 556.864 48.52 558.038 48.52C559.211 48.52 560.171 48.8933 560.918 49.64C561.664 50.3867 562.038 51.3467 562.038 52.52V96.2C562.038 98.1733 562.411 99.8 563.158 101.08C563.904 102.36 564.864 103 566.038 103H568.038C569.104 103 569.958 103.373 570.598 104.12C571.291 104.867 571.638 105.827 571.638 107C571.638 108.173 571.131 109.133 570.118 109.88C569.104 110.627 567.798 111 566.198 111H566.038ZM587.462 130.2C586.929 130.2 586.289 130.04 585.542 129.72C583.195 128.653 582.555 126.973 583.622 124.68L608.022 69.56C609.089 67.32 610.769 66.68 613.062 67.64C615.462 68.6533 616.129 70.3333 615.062 72.68L590.582 127.72C589.942 129.373 588.902 130.2 587.462 130.2ZM596.902 109.24C595.889 109.667 594.929 109.72 594.022 109.4C593.169 109.027 592.475 108.333 591.942 107.32L573.622 72.52C573.089 71.5067 573.009 70.5467 573.382 69.64C573.809 68.68 574.529 67.9867 575.542 67.56C576.555 67.1333 577.515 67.1067 578.422 67.48C579.329 67.8 580.022 68.4667 580.502 69.48L598.022 104.28C598.555 105.293 598.742 106.28 598.582 107.24C598.475 108.147 597.915 108.813 596.902 109.24Z" fill="#017A5E"/>
<defs>
<linearGradient id="paint0_linear_62_624" x1="71.0387" y1="116.483" x2="93.2569" y2="71.1869" gradientUnits="userSpaceOnUse">
<stop offset="0.046875" stop-color="#005441"/>
<stop offset="0.526042" stop-color="#008062"/>
<stop offset="1" stop-color="#005441"/>
</linearGradient>
<linearGradient id="paint1_linear_62_624" x1="77.8512" y1="163.398" x2="102.291" y2="119.665" gradientUnits="userSpaceOnUse">
<stop offset="0.046875" stop-color="#005441"/>
<stop offset="0.526042" stop-color="#008062"/>
<stop offset="1" stop-color="#005441"/>
</linearGradient>
</defs>
</svg>
